<mxfile host="65bd71144e">
    <diagram id="fcDpXb01Aso4lyLf5gty" name="第 1 页">
        <mxGraphModel dx="1553" dy="2645" grid="1" gridSize="10" guides="1" tooltips="1" connect="1" arrows="1" fold="1" page="1" pageScale="1" pageWidth="827" pageHeight="1169" math="0" shadow="0">
            <root>
                <mxCell id="0"/>
                <mxCell id="1" parent="0"/>
                <mxCell id="2" value="" style="shape=image;verticalLabelPosition=bottom;labelBackgroundColor=#ffffff;verticalAlign=top;aspect=fixed;imageAspect=0;image=data:image/svg+xml,PHN2ZyB4bWxucz0iaHR0cDovL3d3dy53My5vcmcvMjAwMC9zdmciIGNsYXNzPSJpY29uIiB3aWR0aD0iMjAwcHgiIGhlaWdodD0iMjAwLjAwcHgiIHZpZXdCb3g9IjAgMCAxMDI0IDEwMjQiIHZlcnNpb249IjEuMSI+PHBhdGggZD0iTTUyNS4yIDE5OC4zYy04LjYgNS42LTE1LjIgMTMuOC0xOC45IDIzLjQtMy44IDEyLjQtMy4yIDI1LjYgMS41IDM3LjcgMy45IDEyLjcgMTEuNyAyMy44IDIyLjIgMzEuOCA1LjQgMy44IDExLjYgNi4yIDE4LjIgNyA2LjYgMC44IDEzLjItMC4zIDE5LjEtMy4zIDctMy45IDEyLjYtMTAgMTUuOS0xNy4zIDMuMi03LjQgNS0xNS4zIDUuMi0yMy4zIDAuNy0xMC4yLTAuNi0yMC40LTMuOC0zMC4xLTMuNS0xMC42LTEwLjMtMTkuNy0xOS41LTI1LjktNC43LTMtOS45LTUtMTUuNC01LjgtNS41LTAuOC0xMS4xLTAuMi0xNi4zIDEuOC0yLjkgMS4yLTUuNyAyLjctOC4zIDQuNSIgZmlsbD0iI0ZGRkZGRiIvPjxwYXRoIGQ9Ik04MTAuMiA2MDYuNWMtNS4xLTI4LjMtMTMuMS01Ni0yMy44LTgyLjYtNy4zLTE5LjgtMTcuMi0zOC42LTI5LjUtNTUuOC0xMi40LTE2LjUtMjguMS0zMC40LTQwLjItNDcuMS02LjQtOC43LTExLjgtMTguNC0xOC41LTI2LjktMi43LTUuNi01LjMtMTEuMi03LjktMTYuOC04LTE3LjUtMTUuMy0zNS40LTI0LjgtNTItMS41LTIuNi0zLjEtNS4yLTQuNi03LjctMS4yLTE2LTIuOS0zMi0zLjgtNDggMC43LTMyLjEtMi02NC4zLTguMS05NS45LTQuMi0xNS4xLTEwLjYtMjkuNi0xOS00Mi44LTkuOC0xNS42LTIyLjQtMjkuMi0zNy4yLTQwLjEtMjQuMS0xNy4xLTUyLjktMjYuMy04Mi40LTI2LjQtMjEuNy0wLjUtNDMuMiA0LjQtNjIuNSAxNC40LTIwLjMgMTEuMS0zNi43IDI4LjItNDcgNDguOS05LjYgMjAuOS0xNC43IDQzLjUtMTUgNjYuNS0wLjggMjIuNiAxLjMgNDUgMi4yIDY3LjYgMC45IDIzLjQgMC40IDQ2LjkgMi4zIDcwLjMgMC42IDcuNSAxLjUgMTUgMS41IDIyLjYgMCAzLjgtMC4yIDcuNi0wLjMgMTEuM2wtMC4zIDAuOGMtMTAuMiAxNy4zLTIxLjUgMzQtMzMuOCA0OS45LTguNiAxMC45LTE3LjIgMjEuNy0yNS45IDMyLjQtMTEuMyAxMi43LTIwLjkgMjYuOC0yOC41IDQyLTUuMSAxMy4yLTkuMiAyNi44LTEyLjQgNDAuNmwtMC4zIDEuMWMtNC44IDE1LjktMTAuOCAzMS4zLTE4IDQ2LjItMC43IDEuNC0xLjQgMi45LTIgNC4yLTQuMyA4LjktOC44IDE3LjgtMTMuNSAyNi41bC01LjQgMTAuMWMtMy40IDYuMS02LjQgMTIuNC05IDE4LjgtMS41IDMuOS0yLjcgNy45LTMuNCAxMi0xLjMgOC43LTAuNyAxNy41IDEuNiAyNS45IDAuNSAyLjEgMS4yIDQuMiAxLjkgNi4zIDIuMiA2LjIgNC44IDEyLjMgNy45IDE4LjEgMS40IDIuNyAyLjkgNS4zIDQuMyA4bDEuMyAxLjljMS40IDIuNSAyLjkgNSA0LjQgNy40bDAuMiAwLjNjMS43IDIuOCAzLjYgNS41IDUuNCA4LjJsMC4zIDAuNGMxLjkgMi42IDMuOCA1LjMgNS44IDcuOSA3LjQgMjguOSAyMSA1NS44IDM5LjcgNzktMi45IDUuMS01LjUgMTAuMS04LjQgMTUuMS0xMC4yIDE0LjgtMTguNiAzMC43LTI1LjEgNDcuNC0yLjcgOC42LTMuNCAxNy43LTEuOSAyNi42IDEuNCA5IDYgMTcuMSAxMyAyMyA0LjcgMy42IDEwLjEgNi4xIDE1LjggNy4zIDUuNyAxLjIgMTEuNiAxLjggMTcuNSAxLjUgMjIuMi0xLjcgNDQuMi02LjEgNjUuNC0xMi45IDEyLjgtMy40IDI1LjYtNi40IDM4LjYtOSAxMy41LTMuMSAyNy4yLTUgNDEtNS42IDMuNCAwLjEgNi44LTAuMSAxMC4xLTAuMyA5LjQgMSAxOC44IDEuNCAyOC4zIDFsMy41LTAuMmMyLjQgMC4zIDQuOSAwLjQgNy40IDAuNiAxNi42IDAuOSAzMy4xIDIuNiA0OS41IDUuMSAxNC40IDIuMiAyOC44IDUgNDMgOC41IDIxLjkgNi42IDQ0LjQgMTEgNjcuMyAxMi45IDYgMC4zIDEyLTAuMiAxOC0xLjQgNS45LTEuMiAxMS41LTMuOCAxNi4zLTcuNCA3LTUuOCAxMS42LTEzLjkgMTMuMS0yMi45IDEuNS04LjkgMC44LTE4LTEuOS0yNi42LTYuNi0xNi43LTE1LjEtMzIuNi0yNS41LTQ3LjMtMy42LTYuMS03LTEyLjQtMTAuNi0xOC41IDE1LjUtMTcuMyAyOS4yLTM2LjMgNDAuNy01Ni41IDcgMC40IDEzLjktMC40IDIwLjYtMi42IDE3LjUtNS45IDMyLjctMTcuMyA0My4zLTMyLjUgMy4yLTQuNSA1LjctOS41IDcuMi0xNC44IDYuOS0xMC43IDExLjYtMjIuNyAxMy44LTM1LjMgMy4yLTIwLjggMi43LTQyLjEtMS41LTYyLjdoLTAuMnogbTAgMCIgZmlsbD0iIzAyMDIwNCIvPjxwYXRoIGQ9Ik00MjUuNiAzMjMuMmMtMy4xIDQtNS4zIDguNy02LjQgMTMuNi0xLjEgNC45LTEuOCAxMC0xLjkgMTUgMC4zIDEwLjEtMC41IDIwLjItMi41IDMwLjEtMy41IDEwLjMtOC44IDE5LjgtMTUuNiAyOC4zLTExLjcgMTQuNy0yMC45IDMxLjItMjcuMiA0OC44LTMuMiAxMC45LTQuMyAyMi4zLTMuMSAzMy43LTEyLjEgMTcuOS0yMi42IDM2LjktMzEuMyA1Ni43LTEzLjQgMjkuOS0yMiA2MS44LTI1LjUgOTQuNC00LjMgNDAuMSAxLjYgODAuNiAxNyAxMTcuOCAxMS4zIDI2LjggMjguNSA1MC44IDUwLjMgNzAuMSAxMS4yIDkuNyAyMy41IDE3LjkgMzYuNyAyNC40IDQ2LjcgMjIuOCAxMDEuNCAyMi4zIDE0Ny42LTEuNCAyMy4xLTEzLjUgNDQuMi0zMC4yIDYyLjYtNDkuNSAxMS45LTEwLjggMjIuNS0yMi45IDMxLjgtMzYuMSAxNS41LTI2LjkgMjQuNi01Ny4xIDI2LjUtODguMSA5LjYtNTMuNiAzLjctMTA4LjgtMTYuOS0xNTkuMi04LjEtMTYuOC0xOC44LTMyLjItMzEuOC00NS42YTI1Mi41IDI1Mi41IDAgMCAwLTIwLjItNjhjLTcuMi0xNS41LTE1LjktMzAuMy0yMi42LTQ2LjItMi43LTYuNS01LjEtMTMuMS04LjEtMTkuNC0yLjktNi40LTYuOS0xMi4zLTExLjgtMTcuMy01LjMtNC45LTExLjYtOC42LTE4LjUtMTAuNy02LjktMi4yLTE0LTMuNC0yMS4yLTMuNi0xNC40LTAuNy0yOC45IDEuMS00My4xIDAuNi0xMS41LTAuNS0yMi44LTIuNS0zNC4zLTEuOC01LjcgMC4zLTExLjQgMS40LTE2LjcgMy41LTUuNCAyLjEtMTAuMSA1LjUtMTMuOCAxMG00LjYtMTI1LjFjLTUuNCAwLjQtMTAuNSAyLjctMTQuNCA2LjQtMy45IDMuNy02LjggOC40LTguNCAxMy41LTIuNyAxMC40LTMuNCAyMS4zLTEuOSAzMiAwLjIgOS43IDEuOSAxOS40IDUuMSAyOC42IDEuOCA0LjUgNC40IDguNyA3LjggMTIuMiAzLjQgMy41IDcuNyA2LjEgMTIuNCA3LjMgNC41IDEuMSA5LjIgMC45IDEzLjUtMC41IDQuMy0xLjQgOC4zLTMuOCAxMS41LTcgNC43LTQuOCA4LjEtMTAuNyA5LjgtMTcuMSAxLjctNi40IDIuNS0xMy4xIDIuMy0xOS44IDAtOC4zLTEuMy0xNi42LTMuOC0yNC42cy02LjgtMTUuMy0xMi42LTIxLjRjLTIuOC0yLjktNi01LjQtOS42LTcuMi0zLjctMS43LTcuNy0yLjYtMTEuNy0yLjRtOTUgMGMtOC42IDUuNi0xNS4yIDEzLjgtMTguOSAyMy40LTMuOCAxMi40LTMuMiAyNS42IDEuNSAzNy43IDMuOSAxMi43IDExLjcgMjMuOCAyMi4yIDMxLjggNS40IDMuOCAxMS42IDYuMiAxOC4yIDcgNi42IDAuOCAxMy4yLTAuMyAxOS4xLTMuMyA3LTMuOSAxMi42LTEwIDE1LjktMTcuMyAzLjItNy40IDUtMTUuMyA1LjItMjMuMyAwLjctMTAuMi0wLjYtMjAuNC0zLjgtMzAuMS0zLjUtMTAuNi0xMC4zLTE5LjctMTkuNS0yNS45LTQuNy0zLTkuOS01LTE1LjQtNS44LTUuNS0wLjgtMTEuMS0wLjItMTYuMyAxLjgtMi45IDEuMi01LjcgMi43LTguMyA0LjUiIGZpbGw9IiNGRkZGRkYiLz48cGF0aCBkPSJNNTQ0LjUgMjIzLjZjLTMuMiAwLjItNi4yIDEuMi04LjkgMi45cy01IDQtNi44IDYuNmMtMy40IDUuMy01LjMgMTEuNS01LjQgMTcuOS0wLjMgNC43IDAuNCA5LjUgMS45IDE0czQuMyA4LjUgNy45IDExLjVjMy44IDMuMSA4LjQgNC45IDEzLjMgNS4yIDQuOSAwLjIgOS43LTEuMSAxMy43LTMuOSAzLjItMi4zIDUuOC01LjIgNy42LTguNyAxLjgtMy40IDIuOS03LjIgMy40LTExIDEtNi44LTAuMi0xMy44LTMuMi0xOS45LTMuMS02LjItOC40LTEwLjktMTQuOC0xMy40LTIuOC0xLjEtNS43LTEuNS04LjctMS40IiBmaWxsPSIjMDIwMjA0Ii8+PHBhdGggZD0iTTQzMC4yIDE5OC4zYy01LjQgMC40LTEwLjUgMi43LTE0LjQgNi40LTMuOSAzLjctNi44IDguNC04LjQgMTMuNS0yLjcgMTAuNC0zLjQgMjEuMy0xLjkgMzIgMC4yIDkuNyAxLjkgMTkuNCA1LjEgMjguNiAxLjggNC42IDQuNCA4LjcgNy44IDEyLjIgMy40IDMuNSA3LjcgNi4xIDEyLjQgNy4zIDQuNSAxLjEgOS4yIDAuOSAxMy41LTAuNSA0LjMtMS40IDguMy0zLjggMTEuNS03IDQuNy00LjggOC4xLTEwLjcgOS44LTE3LjEgMS43LTYuNCAyLjUtMTMuMSAyLjMtMTkuOCAwLTguMy0xLjMtMTYuNi0zLjgtMjQuNnMtNi44LTE1LjMtMTIuNi0yMS40Yy0yLjgtMi45LTYtNS40LTkuNi03LjItMy43LTEuNy03LjctMi42LTExLjctMi40IiBmaWxsPSIjRkZGRkZGIi8+PHBhdGggZD0iTTQxNy4zIDI0Mi44Yy0xLjMgNi43LTEgMTMuNyAxLjEgMjAuMiAxLjYgNC4zIDQgOC4yIDcuMiAxMS41IDIgMi4yIDQuMyA0LjEgNyA1LjQgMi43IDEuNCA1LjcgMS44IDguNyAxLjEgMi43LTAuNyA1LTIuMyA2LjctNC41IDEuNy0yLjIgMi45LTQuNyAzLjctNy4zIDIuMy03LjggMi4xLTE2LjEtMC40LTIzLjktMS42LTUuNy00LjctMTAuOS05LjEtMTQuOC0yLjEtMS44LTQuNy0zLjItNy40LTMuOS0yLjgtMC43LTUuNy0wLjUtOC40IDAuNy0yLjggMS40LTUuMSAzLjctNi41IDYuNS0xLjQgMi44LTIuMyA1LjgtMi43IDguOSIgZmlsbD0iIzAyMDIwNCIvPjxwYXRoIGQ9Ik00MDQuNiAzMjYuOWMwLjIgMC45IDAuNSAxLjggMSAyLjUgMC45IDEuNCAyIDIuNSAzLjQgMy40IDEuMyAwLjkgMi42IDEuNyAzLjkgMi41IDYuOSA0LjcgMTMgMTAuNSAxNy45IDE3LjMgNiA5LjQgMTMuNSAxNy44IDIyIDI1IDYuNSA0LjUgMTQuMSA3LjIgMjIgNy45IDkuMiAwLjcgMTguNS0wLjQgMjcuNC0zLjIgOC4yLTIuNCAxNi4xLTUuOCAyMy41LTEwLjMgMTIuNy0xMC4yIDI2LjMtMTkuMiA0MC43LTI2LjcgMy40LTEuMiA2LjgtMi4xIDEwLTMuNiAzLjMtMS40IDYuMS0zLjggNy44LTcgMS4xLTMuMiAxLjgtNi42IDEuOS0xMCAwLjUtMy42IDEuNy03LjEgMi4zLTEwLjcgMC44LTMuNiAwLjUtNy4zLTAuOC0xMC44LTEuNC0yLjctMy42LTQuOS02LjMtNi4zLTIuNy0xLjMtNS43LTIuMS04LjctMi4yLTYuMSAwLjItMTIuMSAwLjgtMTggMS44LTggMC43LTE2LTAuMy0yNCAwLTkuOSAwLjMtMTkuOCAyLjUtMjkuOCAyLjktMTEuNCAwLjYtMjIuNy0xLjItMzQuMS0xLjctNC45LTAuMy05LjktMC4xLTE0LjggMC43LTQuOSAwLjctOS42IDIuNS0xMy43IDUuMy0zLjggMy03LjMgNi4yLTEwLjcgOS42LTEuOCAxLjYtMy44IDMtNS45IDQuMS0yLjIgMS4xLTQuNSAxLjctNyAxLjYtMS4yLTAuMi0yLjUtMC4yLTMuNyAwLTAuNyAwLjMtMS40IDAuNy0xLjkgMS4ybC0xLjUgMS44Yy0xIDEuNS0xLjkgMy4xLTIuNiA0LjciIGZpbGw9IiNEOTlBMDMiLz48cGF0aCBkPSJNNDI5LjcgMzAxLjdjLTQgMi40LTcuOSA1LTExLjggNy43LTIuMSAxLjMtMy44IDMtNS4xIDUuMS0wLjcgMS42LTEgMy4zLTAuOSA1IDAuMSAxLjcgMC4xIDMuNCAwIDUuMS0wLjEgMS4xLTAuNSAyLjMtMC41IDMuNSAwIDAuNiAwIDEuMiAwLjIgMS43IDAuMiAwLjYgMC40IDEuMSAwLjggMS41IDAuNSAwLjUgMS4yIDAuOSAyIDEuMSAwLjcgMC4yIDEuNSAwLjMgMi4zIDAuNSAzLjUgMSA2LjcgMi45IDkuMyA1LjQgMi43IDIuNCA1LjEgNS4yIDggNy41IDggNiAxNy43IDkuMSAyNy42IDkgOS45LTAuMiAxOS43LTEuNiAyOS4yLTQuMSA3LjUtMS42IDE0LjktMy42IDIyLjEtNi4xIDExLjItNC4yIDIxLjUtMTAuMyAzMC40LTE4LjIgMy45LTMuOCA4LTcuMiAxMi40LTEwLjMgNC0yLjUgOC43LTQuMiAxMi43LTYuNiAwLjQtMC4yIDAuNy0wLjUgMS4xLTAuNyAwLjMtMC4zIDAuNi0wLjYgMC44LTEgMC4zLTAuNyAwLjMtMS41IDAtMi4yLTAuMi0wLjctMC41LTEuMy0wLjktMS44LTAuNS0wLjYtMS4xLTEuMi0xLjctMS43LTQuNi0zLjQtMTAuMS01LjMtMTUuOC01LjUtNS44LTAuNC0xMS4zIDAtMTYuOS0xLjEtNS4yLTEuMS0xMC4zLTIuNi0xNS4zLTQuNC01LjMtMS43LTEwLjctMy0xNi4zLTMuOS0xMy0yLjEtMjYuMi0xLjgtMzkuMSAxLTEyLjEgMi43LTIzLjggNy4zLTM0LjYgMTMuNSIgZmlsbD0iIzYwNDQwNSIvPjxwYXRoIGQ9Ik00MjguNCAyODguMWMtNS44IDMuOS0xMSA4LjctMTUuNSAxNC4xLTIuNiAzLTQuNyA2LjUtNi4xIDEwLjMtMC45IDMtMS41IDYuMS0yIDkuMi0wLjMgMS4xLTAuNSAyLjMtMC41IDMuNSAwIDAuNiAwLjEgMS4yIDAuMyAxLjcgMC4yIDAuNiAwLjUgMS4xIDAuOSAxLjUgMC43IDAuNyAxLjYgMS4xIDIuNiAxLjMgMC45IDAuMiAxLjkgMC4yIDIuOSAwLjMgNC40IDAuNyA4LjUgMi41IDEyLjEgNS4xIDMuNiAyLjUgNyA1LjQgMTAuNyA3LjggOC40IDUgMTggNy43IDI3LjggNy45IDkuOCAwLjIgMTkuNS0wLjggMjktMi45IDcuNi0xLjQgMTUuMS0zLjUgMjIuNC02LjMgMTAuOS00LjcgMjEuMS0xMC44IDMwLjQtMTguMiA0LjMtMy4yIDguNS02LjYgMTIuNC0xMC4zIDEuMy0xLjMgMi42LTIuNiA0LTMuOCAxLjQtMS4yIDMtMi4xIDQuNy0yLjcgMi43LTAuNyA1LjUtMC44IDguMy0wLjEgMiAwLjUgNC4xIDAuNyA2LjIgMC43IDEuMSAwIDIuMS0wLjIgMy4xLTAuNSAxLTAuNCAxLjktMSAyLjUtMS44IDAuOS0xLjEgMS4zLTIuNCAxLjMtMy44cy0wLjQtMi43LTEuMS0zLjljLTEuNS0yLjMtMy44LTQuMS02LjMtNS4xLTMuNS0xLjQtNy4xLTIuNS0xMC44LTMuMi0xMS4zLTIuNy0yMi4zLTYuNy0zMi43LTExLjktNS4yLTIuNi0xMC4xLTUuNC0xNS4zLTguMS01LjItMi45LTEwLjYtNS40LTE2LjItNy4yLTEyLjktMy41LTI2LjYtMi45LTM5LjEgMS44LTE0IDQuOS0yNi41IDEzLjQtMzYuMSAyNC43IiBmaWxsPSIjRjVCRDBDIi8+PHBhdGggZD0iTTQ5My41IDI3Mi4yYzAuNyAyLjMgNC4zIDEuOSA2LjQgMi45IDIuMSAxIDMuMyAyLjkgNS4zIDMuMSAyLjEgMC4yIDUtMC43IDUuMy0yLjYgMC40LTIuNi0zLjQtNC4yLTUuOC01LjEtMy4yLTEuNS02LjgtMS42LTEwLTAuMi0wLjcgMC4zLTEuNCAxLjItMS4yIDEuOXogbS0zNC40LTEuMmMtMi43LTAuOS03LjEgMy44LTUuOCA2LjMgMC40IDAuNyAxLjYgMS41IDIuNCAxLjEgMC44LTAuNCAyLjMtMy4xIDMuNi00IDEtMC44IDAuOC0zLjEtMC4yLTMuNHogbTAgMCIgZmlsbD0iI0NEODkwNyIvPjxwYXRoIGQ9Ik04ODcuNyA4MjkuOGMtMiA1LjItNC45IDEwLTguNSAxNC4zLTguNCA5LTE4LjYgMTYuMi0yOS44IDIxLjItMTkgOC44LTM3LjUgMTguNi01NS41IDI5LjMtMTEuNyA3LjgtMjIuNiAxNi42LTMyLjcgMjYuNC04LjMgOC43LTE3LjIgMTYuNy0yNi42IDI0LjItOS44IDcuMi0yMS4xIDEyLjEtMzMuMSAxNC0xNC43IDEuOS0yOS42LTAuNC00My4xLTYuNS05LjctMy43LTE4LjEtMTAuMi0yNC0xOC44LTUtOS4yLTcuMy0xOS41LTYuOC0yOS45IDAuNi0xOC4zIDIuOC0zNi41IDYuNi01NC41IDIuNi0xNSA1LjItMzAgNi44LTQ1LjEgMi44LTI3LjYgMy4xLTU1LjMgMS04Mi45LTAuNS00LjYtMC41LTkuMyAwLTEzLjkgMC42LTkuNCA4LjUtMTYuNiAxOC0xNi41IDQuMy0wLjEgOC42IDAuMyAxMi44IDEuMSAxMCAxLjIgMjAgMi45IDI5LjggNS4yIDYuMSAxLjYgMTIuMiAzLjggMTguMyA1LjUgMTAuMiAzIDIxIDMuOSAzMS42IDIuOSAxMS4xLTIuNiAyMi40LTQuMyAzMy44LTUuMyA0LjcgMC4yIDkuNCAxIDEzLjggMi40IDQuNiAxLjMgOC45IDMuNiAxMi40IDYuOSAyLjUgMi43IDQuNSA1LjggNS44IDkuMiAxLjkgNS4xIDMuMSAxMC40IDMuNSAxNS44IDAuMiA0LjggMC42IDkuNiAxLjIgMTQuNCAxLjcgNy43IDUuNCAxNC45IDEwLjYgMjAuOSA1LjMgNS44IDExIDExLjIgMTcuMiAxNiA1LjkgNS4yIDEyLjEgMTAgMTguNiAxNC40IDMuMSAyLjEgNi4yIDQgOS4xIDYuMyAzIDIuMiA1LjUgNSA3LjQgOC4yIDIuNCA0LjQgMy4yIDkuNSAyIDE0LjQiIGZpbGw9IiNGNUJEMEMiLz48cGF0aCBkPSJNODg3LjcgODI5LjhjLTIgNS4yLTQuOSAxMC04LjUgMTQuMy04LjQgOS0xOC42IDE2LjItMjkuOCAyMS4yLTE5IDguOC0zNy41IDE4LjYtNTUuNSAyOS4zLTExLjcgNy44LTIyLjYgMTYuNi0zMi43IDI2LjQtOC4zIDguNy0xNy4yIDE2LjctMjYuNiAyNC4yLTkuOCA3LjItMjEuMSAxMi4xLTMzLjEgMTQtMTQuNyAxLjktMjkuNi0wLjQtNDMuMS02LjUtOS43LTMuNy0xOC4xLTEwLjItMjQtMTguOC01LTkuMi03LjMtMTkuNS02LjgtMjkuOSAwLjYtMTguMyAyLjgtMzYuNSA2LjYtNTQuNSAyLjYtMTUgNS4yLTMwIDYuOC00NS4xIDIuOC0yNy42IDMuMS01NS4zIDEtODIuOS0wLjUtNC42LTAuNS05LjMgMC0xMy45IDAuNi05LjQgOC41LTE2LjYgMTgtMTYuNSA0LjMtMC4xIDguNiAwLjMgMTIuOCAxLjEgMTAgMS4yIDIwIDIuOSAyOS44IDUuMiA2LjEgMS42IDEyLjIgMy44IDE4LjMgNS41IDEwLjIgMyAyMSAzLjkgMzEuNiAyLjkgMTEuMS0yLjYgMjIuNC00LjMgMzMuOC01LjMgNC43IDAuMiA5LjQgMSAxMy44IDIuNCA0LjYgMS4zIDguOSAzLjYgMTIuNCA2LjkgMi41IDIuNyA0LjUgNS44IDUuOCA5LjIgMS45IDUuMSAzLjEgMTAuNCAzLjUgMTUuOCAwLjIgNC44IDAuNiA5LjYgMS4yIDE0LjQgMS43IDcuNyA1LjQgMTQuOSAxMC42IDIwLjkgNS4zIDUuOCAxMSAxMS4yIDE3LjIgMTYgNS45IDUuMiAxMi4xIDEwIDE4LjYgMTQuNCAzLjEgMi4xIDYuMiA0IDkuMSA2LjMgMyAyLjIgNS41IDUgNy40IDguMiAyLjQgNC40IDMuMiA5LjUgMiAxNC40TTI1OS40IDY3Ni4zYzQuOS0xLjkgMTAuMi0yLjQgMTUuNC0xLjQgNS4yIDEgMTAuMSAzLjEgMTQuNCA2LjEgOC4zIDYuMyAxNS41IDE0LjEgMjEuMiAyMi44IDE0LjEgMTkuNCAyNy42IDM5LjIgMzkuOSA1OS44IDEwIDE2LjcgMTkuMSAzMy45IDMwLjYgNDkuNiA3LjUgMTAuMiAxNiAxOS43IDIzLjYgMjkuOSA3LjkgMTAgMTMuOSAyMS40IDE3LjYgMzMuNSA0LjQgMTYuMSAyLjYgMzMuMi00LjkgNDguMS01LjQgMTAuNC0xMy41IDE5LjEtMjMuNCAyNS4xLTEwIDYtMjEuNSA5LTMzLjIgOC43LTE4LjQtMi41LTM2LjItOC4xLTUyLjYtMTYuNi0zNC45LTEzLjktNzIuOC0xOC4zLTEwOC44LTI5LjEtMTEuMS0zLjMtMjEuOS03LjMtMzMuMS0xMC4zLTUtMS4yLTkuOS0yLjctMTQuNy00LjctNC43LTItOC44LTUuNC0xMS41LTkuNy0yLTMuNS0zLTcuNS0yLjktMTEuNSAwLjEtNCAwLjktNy45IDIuMy0xMS41IDIuNy03LjUgNy4xLTE0LjIgMTAtMjEuNiA0LjQtMTIuMiA2LjEtMjUuMyA1LTM4LjItMC42LTEyLjktMi45LTI1LjgtMy42LTM4LjctMC42LTUuOC0wLjQtMTEuNiAwLjYtMTcuMyAxLjUtMTEuNCAxMC40LTIwLjUgMjEuOS0yMi4yIDUuMy0wLjkgMTAuNi0xLjMgMTUuOS0xIDUuMyAwLjMgMTAuNyAwLjMgMTYgMCA1LjMtMC4zIDEwLjYtMS44IDE1LjMtNC4zIDQuMy0yLjYgOC4xLTYuMiAxMS0xMC40IDIuOS00LjIgNS41LTguNSA3LjktMTMgMi40LTQuNSA1LjEtOC43IDguMy0xMi43IDMtNC4xIDcuMS03LjIgMTEuOC05LjQiIGZpbGw9IiNGNUJEMEMiLz48cGF0aCBkPSJNMjU5LjQgNjc2LjRjNC45LTEuOSAxMC4yLTIuNCAxNS40LTEuNCA1LjIgMSAxMC4xIDMuMSAxNC40IDYuMSA4LjMgNi4zIDE1LjUgMTQuMSAyMS4yIDIyLjggMTQuMSAxOS40IDI3LjYgMzkuMiAzOS45IDU5LjggMTAgMTYuNyAxOS4xIDMzLjkgMzAuNiA0OS42IDcuNSAxMC4yIDE2IDE5LjcgMjMuNiAyOS45IDcuOSAxMCAxMy45IDIxLjQgMTcuNiAzMy41IDQuNCAxNi4xIDIuNiAzMy4yLTQuOSA0OC4xLTUuNCAxMC40LTEzLjUgMTkuMS0yMy40IDI1LjEtMTAgNi0yMS41IDktMzMuMiA4LjctMTguNC0yLjUtMzYuMi04LjEtNTIuNi0xNi42LTM0LjktMTMuOS03Mi44LTE4LjMtMTA4LjgtMjkuMS0xMS4xLTMuMy0yMS45LTcuMy0zMy4xLTEwLjMtNS0xLjItOS45LTIuNy0xNC43LTQuNy00LjctMi04LjgtNS40LTExLjUtOS43LTItMy41LTMtNy41LTIuOS0xMS41IDAuMS00IDAuOS03LjkgMi4zLTExLjUgMi43LTcuNSA3LjEtMTQuMiAxMC0yMS42IDQuNC0xMi4yIDYuMS0yNS4zIDUtMzguMi0wLjYtMTIuOS0yLjktMjUuNy0zLjYtMzguNy0wLjYtNS44LTAuNC0xMS42IDAuNi0xNy4zIDEuNS0xMS40IDEwLjQtMjAuNSAyMS45LTIyLjIgNS4zLTAuOSAxMC42LTEuMyAxNS45LTEgNS4zIDAuMyAxMC43IDAuMyAxNiAwIDUuMy0wLjMgMTAuNi0xLjggMTUuMy00LjMgNC4zLTIuNiA4LjEtNi4yIDExLTEwLjQgMi45LTQuMiA1LjUtOC41IDcuOS0xMyAyLjQtNC41IDUuMS04LjcgOC4zLTEyLjcgMy00LjEgNy4xLTcuMyAxMS44LTkuNCIgZmlsbD0iI0Y1QkQwQyIvPjxwYXRoIGQ9Ik0yNjcuMSA2ODQuOGM0LjQtMS43IDkuMy0yIDEzLjktMC45czguOSAzLjIgMTIuNiA2LjJjNy4xIDYuMiAxMy4xIDEzLjYgMTcuNiAyMS45IDEyIDE5LjQgMjMuNyAzOSAzNC42IDU5IDcuOSAxNS4zIDE2LjggMzAuMSAyNi42IDQ0LjIgNi44IDkuMiAxNC42IDE3LjYgMjEuNiAyNi42IDcuMyA4LjkgMTIuOCAxOSAxNi4yIDI5LjkgNCAxNC4zIDIuMyAyOS42LTQuNSA0Mi45LTUgOS40LTEyLjUgMTcuMy0yMS43IDIyLjYtOS4yIDUuNC0xOS44IDgtMzAuNCA3LjUtMTYuNy0yLjYtMzIuOS03LjYtNDguMi0xNC45LTMwLjQtMTEuMS02My41LTEyLjUtOTQuNy0yMS4yLTExLjItMy0yMi4xLTcuMS0zMy40LTkuOS01LTEuMS0xMC0yLjUtMTQuOC00LjMtNC44LTEuOC05LTUuMi0xMS44LTkuNS0xLjgtMy40LTIuNy03LjItMi41LTExIDAuMi0zLjggMS03LjYgMi40LTExLjIgMi43LTcuMSA3LTEzLjYgOS43LTIwLjcgMy44LTExIDUuMS0yMi42IDMuOS0zNC4yLTAuOC0xMS41LTIuOS0yMi45LTMuNS0zNC41LTAuNC01LjEtMC4yLTEwLjMgMC43LTE1LjQgMC45LTUuMSAzLjMtOS44IDYuOS0xMy42IDQuMi0zLjggOS40LTYuMyAxNS03IDUuNi0wLjcgMTEuMi0wLjcgMTYuNyAwIDUuNiAwLjcgMTEuMiAwLjkgMTYuOCAwLjggMTEgMCAyMS02LjQgMjUuNy0xNi40IDIuMy00LjUgNC4zLTkuMiA1LjktMTMuOSAxLjctNC44IDQtOS4zIDYuNy0xMy42IDIuOC00LjMgNi44LTcuNyAxMS41LTkuNyIgZmlsbD0iI0Y1QkQwQyIvPjwvc3ZnPg==;" parent="1" vertex="1">
                    <mxGeometry x="140" y="-610" width="35" height="35" as="geometry"/>
                </mxCell>
                <mxCell id="3" value="" style="shape=image;verticalLabelPosition=bottom;labelBackgroundColor=#ffffff;verticalAlign=top;aspect=fixed;imageAspect=0;image=data:image/svg+xml,PHN2ZyB4bWxucz0iaHR0cDovL3d3dy53My5vcmcvMjAwMC9zdmciIGNsYXNzPSJpY29uIiB3aWR0aD0iMjAwcHgiIGhlaWdodD0iMjAwLjAwcHgiIHZpZXdCb3g9IjAgMCAxMDI0IDEwMjQiIHZlcnNpb249IjEuMSI+PHBhdGggZD0iTTQ1NiA0ODRWMTYwLjFsLTMzNS45IDcyVjQ4NEg0NTZ6TTUxMiA0ODRoMzkxLjhWNjQuMmwtMzkxLjggODRWNDg0ek00NTYgNTQwSDEyMC4ydjI1MS45bDMzNS45IDcyVjU0MHpNNTEyIDU0MHYzMzUuOWwzOTEuOCA4NFY1NDBINTEyeiIgZmlsbD0iIzAwYWRlZiIvPjwvc3ZnPg==;" parent="1" vertex="1">
                    <mxGeometry x="280" y="-660" width="40" height="40" as="geometry"/>
                </mxCell>
                <mxCell id="4" value="" style="shape=image;verticalLabelPosition=bottom;labelBackgroundColor=#ffffff;verticalAlign=top;aspect=fixed;imageAspect=0;image=data:image/svg+xml,PHN2ZyB4bWxucz0iaHR0cDovL3d3dy53My5vcmcvMjAwMC9zdmciIGNsYXNzPSJpY29uIiB3aWR0aD0iMjAwcHgiIGhlaWdodD0iMjAwLjAwcHgiIHZpZXdCb3g9IjAgMCAxMDI0IDEwMjQiIHZlcnNpb249IjEuMSI+PHBhdGggZD0iTTc5MS40ODc3MjkgNTQ0LjA5NTQ3M2MtMS4yNzk5OTktMTI5LjY5NTg3NCAxMDUuNzU5ODk4LTE5MS44NzE4MTQgMTEwLjUyNzg5My0xOTQuOTc1ODExLTYwLjE1OTk0Mi04OC4wMzE5MTUtMTUzLjg1NTg1MS0xMDAuMDYzOTAzLTE4Ny4yMzE4MTktMTAxLjQ3MTkwMi03OS43NDM5MjMtOC4wNjM5OTItMTU1LjU4Mzg0OSA0Ni45NDM5NTUtMTk2LjA2MzgxIDQ2Ljk0Mzk1NS00MC4zNTE5NjEgMC0xMDIuODE1OS00NS43NTk5NTYtMTY4Ljk1OTgzNi00NC41NDM5NTctODYuOTExOTE2IDEuMjc5OTk5LTE2Ny4wNzE4MzggNTAuNTI3OTUxLTIxMS44MDc3OTUgMTI4LjM4Mzg3Ni05MC4zMDM5MTMgMTU2LjcwMzg0OC0yMy4xMzU5NzggMzg4LjgzMTYyMyA2NC44OTU5MzcgNTE1LjkzNTUgNDMuMDA3OTU4IDYyLjIwNzk0IDk0LjMwMzkwOSAxMzIuMDYzODcyIDE2MS42MzE4NDMgMTI5LjU2Nzg3NCA2NC44MzE5MzctMi41OTE5OTcgODkuMzc1OTEzLTQxLjk1MTk1OSAxNjcuNzQzODM3LTQxLjk1MTk1OXMxMDAuNDE1OTAzIDQxLjk1MTk1OSAxNjkuMDU1ODM2IDQwLjY3MTk2MWM2OS43NTk5MzItMS4zMTE5OTkgMTEzLjk4Mzg5LTYzLjM5MTkzOSAxNTYuNzAzODQ4LTEyNS43OTE4NzggNDkuMzc1OTUyLTcyLjE1OTkzIDY5LjcyNzkzMi0xNDIuMDQ3ODYyIDcwLjkxMTkzMS0xNDUuNjMxODU5LTEuNTM1OTk5LTAuNzAzOTk5LTEzNi4wNjM4NjgtNTIuMjIzOTQ5LTEzNy40MDc4NjctMjA3LjEzNTc5OXpNNjYyLjU1OTg1NCAxNjMuNTE5ODQyYzM1Ljc0Mzk2NS00My4zNTk5NTggNTkuODcxOTQyLTEwMy41MTk5IDUzLjI3OTk0OC0xNjMuNTE5ODQyLTUxLjQ4Nzk1IDIuMTExOTk4LTExMy44ODc4OSAzNC4zMDM5NjctMTUwLjgxNTg1NCA3Ny41MzU5MjUtMzMuMTUxOTY4IDM4LjM2Nzk2My02Mi4xNDM5NCA5OS42MTU5MDMtNTQuMzY3OTQ3IDE1OC40MzE4NDcgNTcuNDcxOTQ0IDQuNDc5OTk2IDExNi4xMjc4ODgtMjkuMjE1OTcyIDE1MS45MDM4NTMtNzIuNDQ3OTN6IiBmaWxsPSIjNzA3MDcwIi8+PC9zdmc+;" parent="1" vertex="1">
                    <mxGeometry x="460" y="-670" width="40" height="40" as="geometry"/>
                </mxCell>
                <mxCell id="5" value="" style="shape=image;verticalLabelPosition=bottom;labelBackgroundColor=#ffffff;verticalAlign=top;aspect=fixed;imageAspect=0;image=data:image/svg+xml,PHN2ZyB4bWxucz0iaHR0cDovL3d3dy53My5vcmcvMjAwMC9zdmciIGNsYXNzPSJpY29uIiB3aWR0aD0iMjAwcHgiIGhlaWdodD0iMjAwLjAwcHgiIHZpZXdCb3g9IjAgMCAxMDI0IDEwMjQiIHZlcnNpb249IjEuMSI+PHBhdGggZD0iTTMyMCAyNDBoMzg0YTQ4IDQ4IDAgMCAxIDQ4IDQ4djQ2NGEyNDAgMjQwIDAgMCAxLTI0MCAyNDAgMjQwIDI0MCAwIDAgMS0yNDAtMjQwVjI4OGE0OCA0OCAwIDAgMSA0OC00OHoiIGZpbGw9IiNGRkRBNjQiLz48cGF0aCBkPSJNNzA0IDI0MGgtMTYuOTZhNDggNDggMCAwIDEgMC45NiA5LjZ2NDY0YTI0MCAyNDAgMCAwIDEtMzI5LjkyIDIyMi40QTI0MCAyNDAgMCAwIDAgNzUyIDc1MlYyODhhNDggNDggMCAwIDAtNDgtNDh6IiBmaWxsPSIjRkZCNjY2Ii8+PHBhdGggZD0iTTMyMy4yIDgwMy4ydi00OTZhMTYgMTYgMCAwIDEgMTYtMTZINzUyVjI4OGE0OCA0OCAwIDAgMC00OC00OEgzMjBhNDggNDggMCAwIDAtNDggNDh2NDY0YTI0MCAyNDAgMCAwIDAgOTguMDggMTkzLjEyIDIzOC41NiAyMzguNTYgMCAwIDEtNDYuODgtMTQxLjkyeiIgZmlsbD0iI0ZGRkZGRiIvPjxwYXRoIGQ9Ik01MTIgNzUybS04MCAwYTgwIDgwIDAgMSAwIDE2MCAwIDgwIDgwIDAgMSAwLTE2MCAwWiIgZmlsbD0iI0ZGREE2NCIvPjxwYXRoIGQ9Ik00NTYgNzc0LjRhODAgODAgMCAwIDEgMTIxLjYtNjggODAgODAgMCAxIDAtMTA3LjIgMTEzLjc2IDgwIDgwIDAgMCAxLTE0LjQtNDUuNzZ6IiBmaWxsPSIjRkZGRkZGIi8+PHBhdGggZD0iTTU1Ni4xNiA2ODUuNDRhODAgODAgMCAwIDEtMTEwLjg4IDExMC44OCA4MCA4MCAwIDEgMCAxMTAuODgtMTEwLjg4eiIgZmlsbD0iI0ZGQjY2NiIvPjxwYXRoIGQ9Ik0zNjAgNDBoMzA0djE5MmgtMzA0eiIgZmlsbD0iI0ZGRkZGRiIvPjxwYXRoIGQ9Ik02MzguNCA0MHYxNjYuNEgzNjB2MjUuNmgzMDR2LTE5MmgtMjUuNnoiIGZpbGw9IiNFQUVBRjQiLz48cGF0aCBkPSJNNzA0IDIyNGgtMTZWNDhhMzIgMzIgMCAwIDAtMzItMzJIMzY4YTMyIDMyIDAgMCAwLTMyIDMydjE3NmgtMTZhNjQgNjQgMCAwIDAtNjQgNjR2NDY0YTI1NiAyNTYgMCAwIDAgNTEyIDBWMjg4YTY0IDY0IDAgMCAwLTY0LTY0ek0zNjggNDhoMjg4djE3NkgzNjh6IG0zNTIgNzA0YTIwOCAyMDggMCAwIDEtNDE2IDBWMjg4YTE2IDE2IDAgMCAxIDE2LTE2aDM4NGExNiAxNiAwIDAgMSAxNiAxNnoiIGZpbGw9IiMzQTM5NEIiLz48cGF0aCBkPSJNNTEyIDY1NmE5NiA5NiAwIDEgMCA5NiA5NiA5NiA5NiAwIDAgMC05Ni05NnogbTAgMTYwYTY0IDY0IDAgMSAxIDY0LTY0IDY0IDY0IDAgMCAxLTY0IDY0ek00MTYgODBoNDh2NDhoLTQ4ek01NjAgODBoNDh2NDhoLTQ4eiIgZmlsbD0iIzNBMzk0QiIvPjwvc3ZnPg==;" parent="1" vertex="1">
                    <mxGeometry x="550" y="-657.5" width="47.5" height="47.5" as="geometry"/>
                </mxCell>
                <mxCell id="6" value="" style="shape=image;verticalLabelPosition=bottom;labelBackgroundColor=#ffffff;verticalAlign=top;aspect=fixed;imageAspect=0;image=data:image/svg+xml,PHN2ZyB4bWxucz0iaHR0cDovL3d3dy53My5vcmcvMjAwMC9zdmciIGNsYXNzPSJpY29uIiB3aWR0aD0iMjAwcHgiIGhlaWdodD0iMjAwLjAwcHgiIHZpZXdCb3g9IjAgMCAxMDI0IDEwMjQiIHZlcnNpb249IjEuMSI+PHBhdGggZD0iTTYzOS44NzIxMjggMjE0LjgyNTE3NWwwLTQzLjk0NTM4OC00MS45NDIwNTggMCAwIDQzLjk0NTM4OCA0MS45NDIwNTggMHpNNDI2LjA2OTkzIDIxNC44MjUxNzVsMC00My45NDUzODgtNDEuOTQyMDU4IDAgMCA0My45NDUzODggNDEuOTQyMDU4IDB6TTY2MS44NjYxMzQgOTIuOTIwNDEzcTEwNS44NzgxMjIgNzUuOTEzNDIgMTA1Ljg3ODEyMiAyMDUuNzg4ODc4bC01MTEuNDg4NTExIDBxMC0xMzEuODc4Nzg4IDEwMy45MTc0MTYtMjA1Ljc4ODg3OGwtNTUuOTY1MzY4LTU1Ljk2NTM2OHEtMTUuOTg0MDE2LTE1Ljk4NDAxNiAwLTI5Ljk2NDcwMnQyOS45NjQ3MDIgMGw2My45MzYwNjQgNjMuOTM2MDY0cTUxLjk1ODcwOC0yNy45NjEzNzIgMTEzLjg5MTQ0Mi0yNy45NjEzNzIgNTkuOTI5NDA0IDAgMTExLjg4ODExMiAyNy45NjEzNzJsNjMuOTM2MDY0LTYzLjkzNjA2NHExNS45ODQwMTYtMTMuOTgwNjg2IDI5Ljk2NDcwMiAwdDAgMjkuOTY0NzAyek04NzMuNjIyMzc4IDM0Mi42OTczMDNxMjUuOTU4MDQyIDAgNDQuOTY4MzY1IDE4Ljk2NzY5OXQxOC45Njc2OTkgNDQuOTY4MzY1bDAgMjk3LjY4NjMxNHEwIDI3Ljk2MTM3Mi0xOC45Njc2OTkgNDUuOTQ4NzE4dC00NC45NjgzNjUgMTcuOTg3MzQ2LTQ0Ljk2ODM2NS0xNy45ODczNDYtMTguOTY3Njk5LTQ1Ljk0ODcxOGwwLTI5Ny42ODYzMTRxMC0yNS45NTgwNDIgMTguOTY3Njk5LTQ0Ljk2ODM2NXQ0NC45NjgzNjUtMTguOTY3Njk5ek0xNTAuMzc3NjIyIDM0Mi42OTczMDNxMjUuOTU4MDQyIDAgNDQuOTY4MzY1IDE4Ljk2NzY5OXQxOC45Njc2OTkgNDQuOTY4MzY1bDAgMjk3LjY4NjMxNHEwIDI3Ljk2MTM3Mi0xOC45Njc2OTkgNDUuOTQ4NzE4dC00NC45NjgzNjUgMTcuOTg3MzQ2LTQ0Ljk2ODM2NS0xNy45ODczNDYtMTguOTY3Njk5LTQ1Ljk0ODcxOGwwLTI5Ny42ODYzMTRxMC0yNS45NTgwNDIgMTguOTY3Njk5LTQ0Ljk2ODM2NXQ0NC45NjgzNjUtMTguOTY3Njk5ek0yNTYuMjU1NzQ0IDc2OC4yNTU3NDRsMC00MjUuNTU4NDQyIDUxMS40ODg1MTEgMCAwIDQyNS41NTg0NDJxMCAxNy45ODczNDYtMTEuOTc3MzU2IDI5Ljk2NDcwMnQtMjkuOTY0NzAyIDExLjk3NzM1NmwtNDMuOTQ1Mzg4IDAgMCAxNDkuODY2MTM0cTAgMjcuOTYxMzcyLTE4Ljk2NzY5OSA0NS45NDg3MTh0LTQ0Ljk2ODM2NSAxNy45ODczNDYtNDQuOTY4MzY1LTE3Ljk4NzM0Ni0xOC45Njc2OTktNDUuOTQ4NzE4bDAtMTQ5Ljg2NjEzNC04My45MjY3NCAwIDAgMTQ5Ljg2NjEzNHEwIDI3Ljk2MTM3Mi0xOC45Njc2OTkgNDUuOTQ4NzE4dC00NC45NjgzNjUgMTcuOTg3MzQ2LTQ0Ljk2ODM2NS0xNy45ODczNDYtMTguOTY3Njk5LTQ1Ljk0ODcxOGwwLTE0OS44NjYxMzQtNDMuOTQ1Mzg4IDBxLTE3Ljk4NzM0NiAwLTI5Ljk2NDcwMi0xMS45NzczNTZ0LTExLjk3NzM1Ni0yOS45NjQ3MDJ6IiBmaWxsPSIjMDhhZjNjIi8+PC9zdmc+;" parent="1" vertex="1">
                    <mxGeometry x="607.5" y="-670" width="60" height="60" as="geometry"/>
                </mxCell>
                <mxCell id="7" value="" style="shape=image;verticalLabelPosition=bottom;labelBackgroundColor=#ffffff;verticalAlign=top;aspect=fixed;imageAspect=0;image=data:image/svg+xml,PHN2ZyB4bWxucz0iaHR0cDovL3d3dy53My5vcmcvMjAwMC9zdmciIGNsYXNzPSJpY29uIiB3aWR0aD0iMjAwcHgiIGhlaWdodD0iMjAwLjAwcHgiIHZpZXdCb3g9IjAgMCAxMDI0IDEwMjQiIHZlcnNpb249IjEuMSI+PHBhdGggZD0iTTQxNy43MjggMjk0LjAxNmwtMjM4LjMwNCAwYy0zOC40IDAtNjkuODI0IDMxLjQyNC02OS44MjQgNjkuODI0bDAgNTA5LjMxMmMwIDM4LjQgMzEuNDI0IDY5LjgyNCA2OS44MjQgNjkuODI0bDIzOC4zMDQgMGMzOC40IDAgNjkuODI0LTMxLjQyNCA2OS44MjQtNjkuODI0bDAtNTA5LjMxMmMwLTM4LjQtMzEuNDI0LTY5LjgyNC02OS44MjQtNjkuODI0ek0yOTguNTYgOTI4LjUxMmMtMTcuOTIgMC0zMi40NDgtMTQuNTI4LTMyLjQ0OC0zMi40NDhzMTQuNTI4LTMyLjQ0OCAzMi40NDgtMzIuNDQ4IDMyLjQ0OCAxNC41MjggMzIuNDQ4IDMyLjQ0OGMwIDE3LjkyLTE0LjUyOCAzMi40NDgtMzIuNDQ4IDMyLjQ0OHpNNDUwLjQ5NiA4MzAuMDE2YzAgOS44NTYtOC4wNjQgMTcuOTItMTcuOTIgMTcuOTJsLTI2OCAwYy05Ljg1NiAwLTE3LjkyLTguMDY0LTE3LjkyLTE3LjkybDAtNDIzLjA0YzAtOS44NTYgOC4wNjQtMTcuOTIgMTcuOTItMTcuOTJsMjY4IDBjOS44NTYgMCAxNy45MiA4LjA2NCAxNy45MiAxNy45MmwwIDQyMy4wNHoiIGZpbGw9IiMyYzJjMmMiLz48cGF0aCBkPSJNOTE0LjMwNCAxNTAuMjcyYzAtMzguMzM2LTMxLjA3Mi02OS40MDgtNjkuNDQtNjkuNDA4bC00NzIuMzUyIDAuMDMyYy0zOC4zMzYgMC02OS40MDggMzEuMTA0LTY5LjQwOCA2OS40NGwwIDEwNi40MzIgNDQuNDggMCAwLTYwLjA2NGMwLTEyLjI1NiA5Ljk1Mi0yMi4yMDggMjIuMjA4LTIyLjIwOGw0NzcuODg4IDBjMTIuMjU2IDAgMjIuMjA4IDkuOTUyIDIyLjIwOCAyMi4yMDhsMCA2MTYuMzJjMCAxMi4yNTYtOS45NTIgMjIuMjA4LTIyLjIwOCAyMi4yMDhsLTMyMi40NjQgMCAwIDM0LjY1NmMwIDI4LjU3Ni0xMS43NDQgNTQuNDk2LTMwLjYyNCA3My4yOGwzNTAuMzY4LTAuMDMyYzM4LjMzNiAwIDY5LjQwOC0zMS4xMDQgNjkuNDA4LTY5LjQ0bC0wLjA5Ni03MjMuNDU2ek02MDguNzY4IDkxOC40Yy0xNy4zMTIgMC0zMS4zMjgtMTQuMDQ4LTMxLjMyOC0zMS4zMjhzMTQuMDE2LTMxLjMyOCAzMS4zMjgtMzEuMzI4IDMxLjMyOCAxNC4wMTYgMzEuMzI4IDMxLjMyOGMwIDE3LjMxMi0xNC4wNDggMzEuMzI4LTMxLjMyOCAzMS4zMjh6IiBmaWxsPSIjMmMyYzJjIi8+PC9zdmc+;" parent="1" vertex="1">
                    <mxGeometry x="750" y="-230" width="50" height="50" as="geometry"/>
                </mxCell>
            </root>
        </mxGraphModel>
    </diagram>
</mxfile>